<?xml version="1.0" standalone="no"?>
<!DOCTYPE svg PUBLIC "-//W3C//DTD SVG 20010904//EN"
 "http://www.w3.org/TR/2001/REC-SVG-20010904/DTD/svg10.dtd">
<svg version="1.0" xmlns="http://www.w3.org/2000/svg"
 width="300.000000pt" height="168.000000pt" viewBox="0 0 300.000000 168.000000"
 preserveAspectRatio="xMidYMid meet">
<metadata>
Created by potrace 1.15, written by Peter Selinger 2001-2017
</metadata>
<g transform="translate(0.000000,168.000000) scale(0.100000,-0.100000)"
fill="#000000" stroke="none">
<path d="M0 840 l0 -840 711 0 c631 0 710 2 699 15 -10 12 -10 15 3 15 8 0 17
-7 21 -15 8 -23 86 -21 86 3 1 16 1 16 14 0 12 -16 32 -18 163 -18 105 0 153
4 162 13 11 9 13 9 7 0 -6 -10 110 -13 563 -13 l571 0 0 840 0 840 -1500 0
-1500 0 0 -840z m1578 436 c89 -24 281 -118 282 -138 0 -10 5 -18 11 -18 5 0
8 4 4 9 -3 5 -1 12 4 15 31 19 39 -108 8 -138 -9 -10 -17 -29 -17 -42 0 -15
-4 -23 -10 -19 -6 4 -8 10 -5 15 3 4 -3 11 -12 14 -9 4 -20 1 -25 -6 -12 -20
-10 -25 12 -31 12 -3 20 -14 20 -25 0 -11 3 -28 7 -38 4 -10 2 -15 -3 -11 -5
3 -10 -12 -10 -33 -1 -23 -9 -46 -22 -60 -12 -13 -20 -35 -20 -52 1 -16 -3
-33 -9 -36 -6 -4 -13 -17 -17 -29 -4 -13 -14 -23 -22 -23 -8 0 -14 -6 -14 -14
0 -17 -63 -66 -84 -66 -9 0 -16 -4 -16 -8 0 -8 -51 -15 -111 -15 -45 1 -121
33 -115 49 2 6 -3 23 -13 37 -14 21 -20 24 -30 14 -10 -9 -11 -8 -5 6 4 12 2
16 -8 12 -9 -4 -22 10 -39 42 -26 53 -30 118 -14 246 8 65 10 69 42 83 99 42
109 47 88 52 -11 2 -28 11 -39 21 -17 15 -16 16 35 21 78 7 74 28 -6 32 -37 1
-69 0 -72 -4 -6 -11 -23 -10 -23 2 0 6 6 10 13 10 7 0 24 23 38 51 43 93 39
89 94 89 27 0 74 -7 103 -14z m-934 -635 c4 -5 0 -12 -6 -14 -10 -4 -9 -8 2
-16 22 -15 5 -24 -40 -23 l-40 2 0 -40 c0 -28 -4 -40 -14 -40 -8 0 -16 -5 -18
-11 -3 -8 -16 -10 -41 -5 -35 7 -41 15 -36 52 0 4 -5 11 -13 15 -10 7 -9 9 4
9 15 0 15 3 2 28 -12 24 -12 27 1 30 8 2 15 8 15 13 0 12 177 12 184 0z m-367
-239 c10 -6 10 -28 3 -92 -6 -56 -6 -86 0 -88 6 -2 10 -23 10 -46 l0 -43 -50
-2 c-28 -1 -50 3 -50 9 0 5 -12 10 -27 10 -56 0 -59 15 -26 161 l17 76 40 10
c54 13 69 14 83 5z"/>
<path d="M1438 856 c-28 -10 -55 -64 -45 -89 9 -24 82 -41 126 -29 26 6 41 6
41 0 0 -16 73 -1 86 17 18 24 0 58 -37 72 -36 14 -39 1 -3 -16 26 -11 26 -12
8 -26 -26 -20 -114 -19 -143 1 -18 13 -20 18 -10 25 11 7 11 9 1 9 -7 0 -10 5
-7 11 4 6 27 9 51 8 24 -2 46 0 50 4 4 4 0 7 -9 7 -9 0 -17 4 -17 8 0 4 -11 9
-26 10 -14 1 -23 -2 -19 -8 3 -6 2 -10 -4 -10 -5 0 -11 4 -13 8 -1 4 -15 4
-30 -2z"/>
</g>
</svg>
